<?xml version="1.0" encoding="UTF-8"?>
<svg id="_레이어_2" xmlns="http://www.w3.org/2000/svg" version="1.1" viewBox="0 0 8192 5358.8">
  <!-- Generator: Adobe Illustrator 29.7.1, SVG Export Plug-In . SVG Version: 2.1.1 Build 8)  -->
  <defs>
    <style>
      .st0 {
        opacity: .3;
      }

      .st1, .st2, .st3, .st4, .st5 {
        stroke: #000;
      }

      .st1, .st3 {
        fill: none;
      }

      .st1, .st3, .st4, .st5 {
        stroke-miterlimit: 10;
      }

      .st1, .st4 {
        stroke-width: .5px;
      }

      .st2 {
        stroke-miterlimit: 10;
        stroke-width: .5px;
      }

      .st2, .st4, .st5 {
        fill: #fff;
      }

      .st3, .st5 {
        stroke-width: .5px;
      }

      .st6 {
        opacity: .3;
      }
    </style>
  </defs>
  <g id="p19_x5F_special2" class="st0">
    <rect id="bounds" class="st5" x="7215.6" y="-5196.7" width="697.8" height="588.8"/>
    <polyline id="scrollpath" class="st3" points="7710.9 -4656.2 7710.9 -4704.3 7710.9 -4752.4 7710.9 -4800.5 7710.9 -4848.7 7710.9 -4896.8 7710.9 -4944.9 7710.9 -4993 7710.9 -5041.1 7707.2 -5061.8 7697.1 -5079.6 7681.7 -5093 7662.1 -5100.6 7662.1 -5100.6 7662.1 -5100.6 7662.1 -5100.6 7662.1 -5100.6 7662.1 -5100.6 7662.1 -5100.6 7662.1 -5100.6 7662.1 -5100.6 7647.1 -5101.7 7632.6 -5099.2 7619.1 -5093.2 7607.3 -5084 7587.8 -5064.6 7568.4 -5045.2 7549 -5025.7 7529.5 -5006.3 7510.1 -4986.9 7490.7 -4967.4 7471.2 -4948 7451.8 -4928.6"/>
  </g>
  <g id="p54_x5F_special2" class="st0">
    <rect id="bounds1" data-name="bounds" class="st5" x=".7" y="-2431.8" width="522" height="523"/>
    <polyline id="scrollpath1" data-name="scrollpath" class="st3" points="326.8 -1950 319.2 -1959.3 313.5 -1969.7 309.8 -1981 308.4 -1992.9 308.9 -2004 311.3 -2015.1 315.8 -2025.4 322.5 -2034.1 335.9 -2045.2 349.4 -2055.2 362.2 -2066.2 373.3 -2079.7 381.6 -2095.1 387.7 -2111.6 392 -2128.6 394.4 -2146 395.1 -2167.1 392.8 -2188.2 386.9 -2208.2 376.8 -2226.4 359.2 -2243.5 337.1 -2254.5 312.7 -2258.8 288.2 -2255.7 265.9 -2245.2 247.5 -2228.7 234.2 -2207.8 227.2 -2184.1 227.4 -2159.4 234.2 -2135.6 246.9 -2114.3 264.6 -2097.1 284.5 -2086.5 306.1 -2082.2 328.2 -2083.7 349.8 -2090.9 371.9 -2105.8 386.4 -2125.2 394.5 -2148.2 397.3 -2173.8 396.8 -2191.8 394.4 -2209.9 389.8 -2227.6 382.6 -2244.4 377.9 -2252.4 372.5 -2259.8 366.3 -2266.7 359.5 -2272.9 351.3 -2278.4 342.7 -2282.8 334 -2287 325.4 -2291.7 304.1 -2315.7 297.1 -2347.1 302.9 -2379.5 320.1 -2406.6"/>
  </g>
  <g id="p1_basic" class="st6">
    <rect id="bounds-2" class="st4" x="3766.1" y="-5331.7" width="208.6" height="296.1"/>
  </g>
  <g id="p2_basic" class="st6">
    <rect id="bounds-3" class="st4" x="3974.7" y="-5331.7" width="208.6" height="296.1"/>
  </g>
  <g id="p3_special1" class="st6">
    <rect id="bounds-4" class="st4" x="4183.3" y="-5465.7" width="417.3" height="430"/>
    <polyline id="scrollpath2" data-name="scrollpath" class="st1" points="4287.7 -5183.7 4313.7 -5200.4 4339.8 -5217.2 4365.9 -5233.9 4392 -5250.6 4418 -5267.4 4444.1 -5284.1 4470.2 -5300.9 4496.3 -5317.6"/>
  </g>
  <g id="p4_basic" class="st6">
    <rect id="bounds-5" class="st4" x="4600.6" y="-5465.7" width="218.1" height="308.2"/>
    <line id="scrollpath-2" class="st1" x1="4709.7" y1="-5317.6" x2="4709.7" y2="-5311.6"/>
  </g>
  <g id="p5_basic" class="st6">
    <rect id="bounds-6" class="st4" x="4807.6" y="-5465.7" width="208.6" height="296.1"/>
  </g>
  <g id="p6_basic" class="st6">
    <rect id="bounds-7" class="st4" x="5016.2" y="-5465.7" width="208.6" height="296.1"/>
  </g>
  <g id="p7_special1" class="st6">
    <rect id="bounds-8" class="st4" x="5433.5" y="-5465.7" width="208.6" height="451.1"/>
    <polyline id="scrollpath-3" class="st1" points="5537.8 -5317.6 5537.8 -5297.6 5537.8 -5277.6 5537.8 -5257.6 5537.8 -5237.5 5537.8 -5217.5 5537.8 -5197.5 5537.8 -5177.5 5537.8 -5157.5"/>
  </g>
  <g id="p8_special1" class="st6">
    <rect id="bounds-9" class="st4" x="5433.5" y="-5034.4" width="208.6" height="372.7"/>
    <polyline id="scrollpath-4" class="st1" points="5537.8 -4886.3 5537.8 -4876.7 5537.8 -4867.1 5537.8 -4857.6 5537.8 -4848 5537.8 -4838.4 5537.8 -4828.8 5537.8 -4819.3 5537.8 -4809.7"/>
  </g>
  <g id="p9_special1" class="st6">
    <rect id="bounds-10" class="st4" x="5433.5" y="-4677.7" width="208.6" height="751.3"/>
    <polyline id="scrollpath-5" class="st1" points="5537.8 -4529.6 5537.8 -4472.8 5537.8 -4415.9 5537.8 -4359.1 5537.8 -4302.2 5537.8 -4245.3 5537.8 -4188.5 5537.8 -4131.6 5537.8 -4074.8"/>
  </g>
  <g id="p10_basic" class="st6">
    <rect id="bounds-11" class="st4" x="5433.5" y="-3926.7" width="208.7" height="296.2"/>
  </g>
  <g id="p11_basic" class="st6">
    <rect id="bounds-12" class="st4" x="5642.1" y="-3926.4" width="208.7" height="296.2"/>
  </g>
  <g id="p12_basic" class="st6">
    <rect id="bounds-13" class="st4" x="5850.7" y="-3926.4" width="208.6" height="296.1"/>
  </g>
  <g id="p13_basic" class="st6">
    <rect id="bounds-14" class="st4" x="6059.3" y="-3926.4" width="208.6" height="296.1"/>
  </g>
  <g id="p14_special2" class="st6">
    <rect id="bounds-15" class="st4" x="6267.9" y="-3988.8" width="876.8" height="421"/>
    <polyline id="scrollpath-6" class="st1" points="6372.2 -3777.6 6394.8 -3777.6 6417.4 -3777.6 6441 -3779 6464.1 -3783.4 6486.5 -3790.7 6507.9 -3800.6 6526.2 -3809.1 6548.9 -3816.5 6576.2 -3821.8 6608.2 -3823.8 6635.4 -3820.4 6659.1 -3811.9 6678.7 -3800.9 6693.5 -3789.8 6709.8 -3772.4 6720 -3761.2 6738.4 -3748.2 6766.5 -3737.4 6805.5 -3732.9 6834.4 -3735 6860.7 -3740.6 6883.7 -3748.3 6903.1 -3757.1 6923.6 -3765.9 6944.8 -3772.3 6966.6 -3776.2 6988.8 -3777.6 7014.6 -3777.6 7040.5 -3777.6"/>
  </g>
  <g id="p15_basic" class="st6">
    <rect id="bounds-16" class="st4" x="7144.8" y="-3926.7" width="208.6" height="296.1"/>
  </g>
  <g id="p16_special2" class="st6">
    <rect id="bounds-17" class="st4" x="7353.4" y="-4136.1" width="505.5" height="505.5"/>
    <polyline id="scrollpath-7" class="st1" points="7457.8 -3778.6 7483.9 -3778.6 7509.9 -3778.6 7536 -3778.6 7562.1 -3778.6 7571.1 -3778.6 7625.5 -3789.6 7669.9 -3819.6 7699.9 -3864 7710.9 -3918.4 7710.9 -3953.6 7710.9 -3979.6 7710.9 -4005.7 7710.9 -4031.8"/>
  </g>
  <g id="p17_basic" class="st6">
    <rect id="bounds-18" class="st4" x="7606.6" y="-4388.5" width="208.6" height="296.1"/>
  </g>
  <g id="p18_special1" class="st6">
    <rect id="bounds-19" class="st4" x="7493" y="-4620.9" width="305.9" height="368"/>
    <line id="scrollpath-8" class="st1" x1="7707.9" y1="-4449" x2="7713.9" y2="-4449"/>
  </g>
  <g id="p20_basic" class="st6">
    <rect id="bounds-21" class="st4" x="7200" y="-4929" width="208.6" height="296.1"/>
  </g>
  <g id="p21_special1" class="st6">
    <rect id="bounds-22" class="st4" x="6696.3" y="-4634" width="626" height="296.1"/>
    <polyline id="scrollpath-10" class="st1" points="7156.8 -4633.5 7119.9 -4596.6 7083 -4559.7 7046.2 -4522.8 7009.3 -4485.9 6972.4 -4449 6935.5 -4412.1 6898.6 -4375.3 6861.7 -4338.4"/>
  </g>
  <g id="p22_basic" class="st6">
    <rect id="bounds-23" class="st4" x="6609.9" y="-4338.9" width="208.6" height="296.1"/>
  </g>
  <g id="p23_basic" class="st6">
    <rect id="bounds-24" class="st4" x="6609.9" y="-4338.9" width="208.6" height="296.1"/>
  </g>
  <g id="p24_basic" class="st6">
    <rect id="bounds-25" class="st4" x="6462.4" y="-4191.4" width="208.6" height="296.1"/>
  </g>
  <g id="p25_basic" class="st6">
    <rect id="bounds-26" class="st4" x="6314.9" y="-4043.9" width="208.6" height="296.1"/>
  </g>
  <g id="p26_basic" class="st6">
    <rect id="bounds-27" class="st4" x="6139.6" y="-3920.3" width="256.1" height="352.1"/>
    <line id="scrollpath-11" class="st1" x1="6267.6" y1="-3747.8" x2="6267.6" y2="-3744.3"/>
  </g>
  <g id="p27_basic" class="st6">
    <rect id="bounds-28" class="st4" x="6016.3" y="-3745.3" width="208.6" height="296.1"/>
  </g>
  <g id="p28_basic" class="st6">
    <rect id="bounds-29" class="st4" x="5868.7" y="-3597.7" width="208.6" height="296.1"/>
  </g>
  <g id="p29_special1" class="st6">
    <rect id="bounds-30" class="st4" x="5008.8" y="-3155.1" width="1043.3" height="296.1"/>
    <polyline id="scrollpath-12" class="st1" points="5825.5 -3302.2 5788.6 -3265.3 5751.8 -3228.4 5714.9 -3191.5 5678 -3154.6 5641.1 -3117.7 5604.2 -3080.8 5567.3 -3044 5530.4 -3007.1 5493.5 -2970.2 5456.6 -2933.3 5419.8 -2896.4 5382.9 -2859.5 5346 -2822.6 5309.1 -2785.7 5272.2 -2748.9 5235.3 -2712"/>
  </g>
  <g id="p30_basic" class="st6">
    <rect id="bounds-31" class="st4" x="4983.5" y="-2712.5" width="208.6" height="296.1"/>
  </g>
  <g id="p31_x5F_basic" class="st0">
    <rect id="bounds2" data-name="bounds" class="st2" x="4836" y="-2565" width="208.6" height="296.1"/>
  </g>
  <g id="p32_special1" class="st6">
    <rect id="bounds-33" class="st4" x="3763.1" y="-2409.5" width="1043.1" height="429"/>
    <polyline id="scrollpath-13" class="st1" points="4614.8 -2454.9 4585.7 -2425.8 4556.6 -2396.6 4527.4 -2367.5 4498.3 -2338.4 4469.2 -2309.3 4440.1 -2280.2 4411 -2251 4381.8 -2221.9 4360.8 -2205.8 4336.8 -2195.7 4311 -2191.9 4284.6 -2195 4284.6 -2195 4284.6 -2195 4284.6 -2195 4284.6 -2195 4284.6 -2195 4284.6 -2195 4284.6 -2195 4284.6 -2195 4258.3 -2198 4232.5 -2194.3 4208.5 -2184.2 4187.4 -2168 4158.3 -2138.9 4129.2 -2109.8 4100.1 -2080.7 4071 -2051.5 4041.8 -2022.4 4012.7 -1993.3 3983.6 -1964.2 3954.5 -1935.1"/>
  </g>
  <g id="p33_basic" class="st6">
    <rect id="bounds-34" class="st4" x="4510.1" y="-2595.8" width="208.6" height="296.1"/>
  </g>
  <g id="p34_basic" class="st6">
    <rect id="bounds-35" class="st4" x="4362.6" y="-2448.3" width="208.6" height="296.1"/>
  </g>
  <g id="p35_special1" class="st6">
    <rect id="bounds-36" class="st4" x="4179.9" y="-2385.6" width="208.6" height="395.4"/>
  </g>
  <g id="p36_basic" class="st6">
    <rect id="bounds-37" class="st4" x="3997.3" y="-2223.5" width="208.6" height="296.1"/>
  </g>
  <g id="p37_basic" class="st6">
    <rect id="bounds-38" class="st4" x="3849.8" y="-2076" width="208.6" height="296.1"/>
  </g>
  <g id="p38_special1" class="st6">
    <rect id="bounds-39" class="st4" x="3153.7" y="-1824.9" width="748.9" height="296.1"/>
    <polyline id="scrollpath-14" class="st1" points="3719.2 -1867.9 3671.4 -1820.1 3623.6 -1772.4 3575.9 -1724.6 3528.1 -1676.8 3480.4 -1629.1 3432.6 -1581.3 3384.9 -1533.6 3337.1 -1485.8"/>
  </g>
  <g id="p39_special1" class="st6">
    <rect id="bounds-40" class="st4" x="3197.4" y="-1532.8" width="77.2" height="296.1"/>
  </g>
  <g id="p40_basic" class="st6">
    <rect id="bounds-41" class="st4" x="3030.6" y="-1431.7" width="208.6" height="296.1"/>
  </g>
  <g id="p41_special1" class="st6">
    <rect id="bounds-42" class="st4" x="2523.8" y="-1135.3" width="629.6" height="296.1"/>
    <polyline id="scrollpath-15" class="st1" points="2987.6 -1136.2 2950.4 -1099 2913.2 -1061.8 2875.9 -1024.5 2838.7 -987.3 2801.5 -950.1 2764.2 -912.8 2727 -875.6 2689.8 -838.3"/>
  </g>
  <g id="p42_basic" class="st6">
    <rect id="bounds-43" class="st4" x="2433.1" y="-832.9" width="208.6" height="296.1"/>
  </g>
  <g id="p43_basic" class="st6">
    <rect id="bounds-44" class="st4" x="2304.9" y="-685.3" width="208.6" height="296.1"/>
  </g>
  <g id="p44_basic" class="st6">
    <rect id="bounds-45" class="st4" x="2154.5" y="-532.4" width="208.6" height="296.1"/>
  </g>
  <g id="p45_basic" class="st6">
    <rect id="bounds-46" class="st4" x="2005.8" y="-449.4" width="208.6" height="296.1"/>
  </g>
  <g id="p46_basic" class="st6">
    <rect id="bounds-47" class="st4" x="1798.7" y="-449.4" width="208.6" height="296.1"/>
  </g>
  <g id="p47_basic" class="st6">
    <rect id="bounds-48" class="st4" x="1617.8" y="-403.5" width="208.6" height="296.1"/>
  </g>
  <g id="p48_basic" class="st6">
    <rect id="bounds-49" class="st4" x="1400.1" y="-461.8" width="208.6" height="296.1"/>
  </g>
  <g id="p49_basic" class="st6">
    <rect id="bounds-50" class="st4" x="1052.5" y="-634.7" width="208.6" height="296.1"/>
  </g>
  <g id="p50_basic" class="st6">
    <rect id="bounds-51" class="st4" x="905" y="-782.2" width="208.6" height="296.1"/>
  </g>
  <g id="p51_special1" class="st6">
    <rect id="bounds-52" class="st4" x="403.3" y="-1169.7" width="623.6" height="482.6"/>
    <polyline id="scrollpath-16" class="st1" points="861.8 -781.6 850 -793.4 838.3 -805.1 826.6 -816.9 814.8 -828.6 801.3 -840.6 786.6 -851 770.7 -859.6 753.9 -866.4 753.6 -866.5 753.3 -866.6 753 -866.7 752.7 -866.8 719.7 -882.4 691.5 -904.8 669.2 -933 653.8 -966.1 653.8 -966.1 653.8 -966.1 653.8 -966.1 653.8 -966.1 647 -983 638.4 -999.1 628 -1014 615.8 -1027.6 604 -1039.5 592.1 -1051.3 580.2 -1063.2 568.3 -1075.1"/>
  </g>
  <g id="p52_basic" class="st6">
    <rect id="bounds-53" class="st4" x="316.5" y="-1370.7" width="208.6" height="296.1"/>
  </g>
  <g id="p53_special1" class="st6">
    <rect id="bounds-54" class="st4" x="94.2" y="-1845.4" width="418.9" height="592.5"/>
    <polyline id="scrollpath-17" class="st1" points="273.2 -1370 280.9 -1377.7 296.2 -1393 303.8 -1400.7 326.8 -1435.3 334.5 -1474.7 326.8 -1514.1 303.8 -1548.7 303.8 -1548.7 303.8 -1548.7 303.8 -1548.7 303.8 -1548.7 280.8 -1583.4 273.2 -1622.8 280.8 -1662.2 303.8 -1696.8 311.5 -1704.5 326.8 -1719.8 334.5 -1727.5 334.5 -1727.5 334.5 -1727.5 334.5 -1727.5 334.5 -1727.5"/>
  </g>
  <g id="p55_basic" class="st6">
    <rect id="bounds-56" class="st4" x="335.5" y="-2657.3" width="208.6" height="296.1"/>
  </g>
  <g id="p56_basic" class="st6">
    <rect id="bounds-57" class="st4" x="483.1" y="-2804.8" width="208.6" height="296.1"/>
  </g>
  <g id="p57_basic" class="st6">
    <rect id="bounds-58" class="st4" x="692.3" y="-2595.6" width="208.6" height="296.1"/>
  </g>
  <g id="p58_basic" class="st6">
    <rect id="bounds-59" class="st4" x="839.8" y="-2743.2" width="208.6" height="296.1"/>
  </g>
  <g id="p59_basic" class="st6">
    <rect id="bounds-60" class="st4" x="987.3" y="-2890.7" width="208.6" height="296.1"/>
  </g>
  <g id="p60_special1" class="st6">
    <rect id="bounds-61" class="st4" x="1340.3" y="-2740.8" width="208.6" height="702.3"/>
    <polyline id="scrollpath-19" class="st1" points="1588.2 -2246 1552.3 -2281.9 1516.4 -2317.8 1480.5 -2353.7 1444.6 -2389.7 1408.7 -2425.6 1372.8 -2461.5 1336.9 -2497.4 1301 -2533.3"/>
  </g>
  <g id="p61_basic" class="st6">
    <rect id="bounds-62" class="st4" x="1631.4" y="-2541.6" width="208.6" height="296.1"/>
  </g>
  <g id="p62_basic" class="st6">
    <rect id="bounds-63" class="st4" x="1779" y="-2689.1" width="208.6" height="296.1"/>
  </g>
  <g id="p63_basic" class="st6">
    <rect id="bounds-64" class="st4" x="1926.5" y="-2836.6" width="208.6" height="296.1"/>
  </g>
  <g id="p64_special1" class="st6">
    <rect id="bounds-65" class="st4" x="1886.9" y="-3588.9" width="706.6" height="1339.7"/>
  </g>
  <g id="p65_basic" class="st6">
    <rect id="bounds-66" class="st4" x="2380.3" y="-3294.9" width="208.6" height="296.1"/>
  </g>
  <g id="p66_basic" class="st6">
    <rect id="bounds-67" class="st4" x="2527.8" y="-3442.4" width="208.6" height="296.1"/>
  </g>
  <g id="p67_basic" class="st6">
    <rect id="bounds-68" class="st4" x="2675.3" y="-3589.9" width="208.6" height="296.1"/>
  </g>
  <g id="p68_basic" class="st6">
    <rect id="bounds-69" class="st4" x="2822.8" y="-3737.4" width="208.6" height="296.1"/>
  </g>
  <g id="p69_special2" class="st6">
    <rect id="bounds-70" class="st4" x="2972.3" y="-3941.2" width="397.2" height="379.8"/>
    <polyline id="scrollpath-20" class="st1" points="3076.1 -3738.5 3089.3 -3747.2 3103.1 -3754.9 3117.3 -3761.6 3131.9 -3767.3 3146.9 -3771.8 3162.2 -3775.3 3177.8 -3777.7 3193.5 -3779"/>
  </g>
  <g id="p70_special1" class="st6">
    <rect id="bounds-71" class="st4" x="3297.8" y="-3956.8" width="803.8" height="361.5"/>
    <line id="scrollpath-21" class="st1" x1="3402.1" y1="-3779" x2="3974.3" y2="-3779"/>
  </g>
  <g id="p71_basic" class="st6">
    <rect id="bounds-72" class="st4" x="4599" y="-3926.7" width="208.6" height="296.1"/>
  </g>
  <g id="p72_basic" class="st6">
    <rect id="bounds-73" class="st4" x="4807.6" y="-3926.7" width="208.6" height="296.1"/>
  </g>
  <g id="p73_basic" class="st6">
    <rect id="bounds-74" class="st4" x="5016.2" y="-3926.7" width="208.6" height="296.1"/>
  </g>
  <g id="p74_basic" class="st6">
    <rect id="bounds-75" class="st4" x="5224.8" y="-3926.7" width="208.6" height="296.1"/>
  </g>
  <g id="p75_basic" class="st6">
    <rect id="bounds-76" class="st4" x="5433.5" y="-3926.7" width="208.7" height="296.2"/>
  </g>
  <g id="p76_basic" class="st6">
    <rect id="bounds-77" class="st4" x="5642.1" y="-3926.4" width="208.7" height="296.2"/>
  </g>
  <g id="p77_basic" class="st6">
    <rect id="bounds-78" class="st4" x="5850.7" y="-3926.4" width="208.6" height="296.1"/>
  </g>
  <g id="p78_basic" class="st6">
    <rect id="bounds-79" class="st4" x="6059.3" y="-3926.4" width="208.6" height="296.1"/>
  </g>
  <g id="p79_special2" class="st6">
    <rect id="bounds-80" class="st4" x="6267.9" y="-3988.8" width="876.8" height="421"/>
    <polyline id="scrollpath-22" class="st1" points="6372.2 -3777.6 6394.8 -3777.6 6417.4 -3777.6 6441 -3779 6464.1 -3783.4 6486.5 -3790.7 6507.9 -3800.6 6526.2 -3809.1 6548.9 -3816.5 6576.2 -3821.8 6608.2 -3823.8 6635.4 -3820.4 6659.1 -3811.9 6678.7 -3800.9 6693.5 -3789.8 6702.1 -3781.5 6709.8 -3772.4 6720 -3761.2 6738.4 -3748.2 6766.5 -3737.4 6805.5 -3732.9 6834.4 -3735 6860.7 -3740.6 6883.7 -3748.3 6903.1 -3757.1 6923.6 -3765.9 6944.8 -3772.3 6966.6 -3776.2 6988.8 -3777.6 7014.6 -3777.6 7040.5 -3777.6"/>
  </g>
  <g id="p80_basic" class="st6">
    <rect id="bounds-81" class="st4" x="7144.9" y="-3926.4" width="208.6" height="296.1"/>
  </g>
  <g id="p81_basic" class="st6">
    <rect id="bounds-82" class="st4" x="7353.5" y="-3926.4" width="208.6" height="296.1"/>
  </g>
  <g id="p82_special1" class="st6">
    <rect id="bounds-83" class="st4" x="7562.1" y="-3926.4" width="629.6" height="296.1"/>
    <polyline id="scrollpath-23" class="st1" points="7666.5 -3778.6 7701.5 -3778.6 7736.5 -3778.6 7771.5 -3778.6 7806.5 -3778.6 7841.5 -3778.6 7876.5 -3778.6 7911.5 -3778.6 7946.5 -3778.6"/>
  </g>
  <g id="p83_special1" class="st6">
    <rect id="bounds-84" class="st4" x="3908.8" y="-4121.3" width="986" height="1078.2"/>
    <line id="scrollpath-24" class="st1" x1="4223.5" y1="-3776.1" x2="4223.5" y2="-3772.2"/>
  </g>
  <g id="p84_basic" class="st6">
    <rect id="bounds-85" class="st4" x="4445.1" y="-3541.4" width="208.6" height="296.1"/>
  </g>
  <g id="p85_basic" class="st6">
    <rect id="bounds-86" class="st4" x="4592.6" y="-3393.9" width="208.6" height="296.1"/>
  </g>
  <g id="p86_basic" class="st6">
    <rect id="bounds-87" class="st4" x="4740.1" y="-3246.4" width="208.6" height="296.1"/>
  </g>
  <g id="p87_basic" class="st6">
    <rect id="bounds-88" class="st4" x="4887.6" y="-3098.8" width="208.6" height="296.1"/>
  </g>
  <g id="p88_basic" class="st6">
    <rect id="bounds-89" class="st4" x="5035.1" y="-2951.3" width="208.6" height="296.1"/>
  </g>
  <g id="p89_special1" class="st6">
    <rect id="bounds-90" class="st4" x="4964.9" y="-2767.8" width="834.6" height="423"/>
    <polyline id="scrollpath-25" class="st1" points="5280.4 -2712.3 5319.5 -2673.3 5358.5 -2634.3 5397.5 -2595.3 5436.5 -2556.3 5475.5 -2517.3 5514.5 -2478.2 5553.5 -2439.2 5592.5 -2400.2"/>
  </g>
  <g id="p90_special1" class="st6">
    <rect id="bounds-91" class="st4" x="5372.6" y="-2325.9" width="417.3" height="592.1"/>
    <line id="scrollpath-26" class="st1" x1="5734.6" y1="-2203.8" x2="5754.4" y2="-2184"/>
  </g>
  <g id="p91_basic" class="st6">
    <rect id="bounds-92" class="st4" x="5916.4" y="-2070" width="208.6" height="296.1"/>
  </g>
  <g id="p92_basic" class="st6">
    <rect id="bounds-93" class="st4" x="6064" y="-1922.5" width="208.6" height="296.1"/>
  </g>
  <g id="p93_basic" class="st6">
    <rect id="bounds-94" class="st4" x="6211.5" y="-1775" width="208.6" height="296.1"/>
  </g>
  <g id="p94_basic" class="st6">
    <rect id="bounds-95" class="st4" x="6359" y="-1627.5" width="208.6" height="296.1"/>
  </g>
  <g id="p95_basic" class="st6">
    <rect id="bounds-96" class="st4" x="6506.5" y="-1479.4" width="208.6" height="296.1"/>
  </g>
</svg>