<?xml version="1.0" encoding="UTF-8"?><svg id="_레이어_2" xmlns="http://www.w3.org/2000/svg" viewBox="0 0 7962.8 5344.1"><g id="_레이어_2-2"><g id="p1__special1" opacity=".3"><rect id="bounds" x="3014.2" width="740.2" height="740.2" fill="#fff"/></g><g id="p2__special1" opacity=".3"><rect id="bounds-2" x="3014.2" width="740.2" height="740.2" fill="#fff"/></g><g id="p3__special1" opacity=".3"><rect id="bounds-3" x="3014.2" width="740.2" height="740.2" fill="#fff"/></g><g id="p4__basic" opacity=".3"><rect id="bounds-4" x="3723.5" y="221.2" width="209.7" height="297.7" fill="#fff"/></g><g id="p5__basic" opacity=".3"><rect id="bounds-5" x="3933.2" y="221.2" width="209.7" height="297.7" fill="#fff"/></g><g id="p6__special1" opacity=".3"><rect id="bounds-6" x="4143" y="86.6" width="419.6" height="432.3" fill="#fff"/><polyline id="scrollpath2" points="4248.5 369.8 4274.5 353.1 4300.6 336.3 4326.7 319.6 4352.8 302.9 4378.8 286.1 4404.9 269.4 4431 252.6 4457.1 235.9" fill="none" stroke="#000" stroke-miterlimit="10" stroke-width=".5"/></g><g id="p7__special1" opacity=".3"><rect id="bounds-7" x="4562.5" y="86.6" width="219.3" height="309.8" fill="#fff"/></g><g id="p8__basic" opacity=".3"><rect id="bounds-8" x="4770.6" y="86.6" width="209.7" height="297.7" fill="#fff"/></g><g id="p9__basic" opacity=".3"><rect id="bounds-9" x="4980.3" y="86.6" width="209.7" height="297.7" fill="#fff"/></g><g id="p10__basic" opacity=".3"><rect id="bounds-10" x="5190" y="86.6" width="209.7" height="297.7" fill="#fff"/></g><g id="p11__special1" opacity=".3"><rect id="bounds-11" x="5399.8" y="86.6" width="209.7" height="453.5" fill="#fff"/><polyline id="scrollpath-3" points="5504.6 235.9 5504.6 255.9 5504.6 275.9 5504.6 295.9 5504.6 316 5504.6 336 5504.6 356 5504.6 376 5504.6 396" fill="none" stroke="#000" stroke-miterlimit="10" stroke-width=".5"/></g><g id="p12__special1" opacity=".3"><rect id="bounds-12" x="5399.8" y="520.1" width="209.7" height="374.7" fill="#fff"/><polyline id="scrollpath-4" points="5504.6 669.2 5504.6 678.8 5504.6 688.4 5504.6 697.9 5504.6 707.5 5504.6 717.1 5504.6 726.7 5504.6 736.2 5504.6 745.8" fill="none" stroke="#000" stroke-miterlimit="10" stroke-width=".5"/></g><g id="p13__special1" opacity=".3"><rect id="bounds-13" x="5399.8" y="874.8" width="209.7" height="755.3" fill="#fff"/><polyline id="scrollpath" points="5504.6 1024.9 5504.6 1081.7 5504.6 1138.6 5504.6 1195.4 5504.6 1252.3 5504.6 1309.2 5504.6 1366 5504.6 1422.9 5504.6 1479.7" fill="none" stroke="#000" stroke-miterlimit="10" stroke-width=".5"/></g><g id="p14__basic" opacity=".3"><rect id="bounds-14" x="5399.8" y="1610.1" width="209.7" height="297.7" fill="#fff"/></g><g id="p15__basic" opacity=".3"><rect id="bounds-15" x="5609.5" y="1610.1" width="209.7" height="297.7" fill="#fff"/></g><g id="p16__basic" opacity=".3"><rect id="bounds-16" x="5819.2" y="1610.1" width="209.7" height="297.7" fill="#fff"/></g><g id="p17__special2" opacity=".3"><rect id="bounds-17" x="6028.9" y="1547.3" width="881.5" height="423.3" fill="#fff"/><polyline id="scrollpath-22" points="6135.6 1759.6 6158.2 1759.6 6180.8 1759.6 6204.4 1758.2 6227.5 1753.8 6249.9 1746.5 6271.3 1736.6 6289.6 1728.1 6312.3 1720.7 6339.6 1715.4 6371.6 1713.4 6398.8 1716.8 6422.5 1725.3 6442.1 1736.3 6456.9 1747.4 6465.5 1755.7 6473.2 1764.8 6483.4 1776 6501.8 1789 6529.9 1799.8 6568.9 1804.3 6597.8 1802.2 6624.1 1796.6 6647.1 1788.9 6666.5 1780.1 6687 1771.3 6708.2 1764.9 6730 1761 6752.2 1759.6 6778 1759.6 6803.9 1759.6" fill="none" stroke="#000" stroke-miterlimit="10" stroke-width=".5"/></g><g id="p18__basic" opacity=".3"><rect id="bounds-18" x="6910.4" y="1610.1" width="209.7" height="297.7" fill="#fff"/></g><g id="p19__special2" opacity=".3"><rect id="bounds-19" x="7120.1" y="1399.5" width="508.2" height="508.2" fill="#fff"/><polyline id="scrollpath-7" points="7224.5 1757 7250.6 1757 7276.6 1757 7302.7 1757 7328.8 1757 7337.8 1757 7392.2 1746 7436.6 1716 7466.6 1671.6 7477.6 1617.2 7477.6 1582 7477.6 1556 7477.6 1529.9 7477.6 1503.8" fill="none" stroke="#000" stroke-miterlimit="10" stroke-width=".5"/></g><g id="p20__basic" opacity=".3"><rect id="bounds-20" x="7374.7" y="1145.6" width="209.7" height="297.7" fill="#fff"/></g><g id="p21__special1" opacity=".3"><rect id="bounds-21" x="7182.9" y="846.7" width="468.5" height="500.1" fill="#fff"/></g><g id="p22__special2" opacity=".3"><rect id="bounds-22" x="6981.6" y="333.1" width="701.5" height="592" fill="#fff"/><polyline id="scrollpath-2" points="7478.8 875.1 7478.8 827 7478.8 778.9 7478.8 730.8 7478.8 682.6 7478.8 634.5 7478.8 586.4 7478.8 538.3 7478.8 490.2 7475.1 469.5 7465 451.7 7449.6 438.3 7430 430.7 7430 430.7 7430 430.7 7430 430.7 7430 430.7 7430 430.7 7430 430.7 7430 430.7 7430 430.7 7415 429.6 7400.5 432.1 7387 438.1 7375.2 447.3 7355.7 466.7 7336.3 486.1 7316.9 505.6 7297.4 525 7278 544.4 7258.6 563.9 7239.1 583.3 7219.7 602.7" fill="none" stroke="#000" stroke-miterlimit="10" stroke-width=".5"/></g><g id="p23__basic" opacity=".3"><rect id="bounds-23" x="6965.3" y="603.2" width="209.7" height="297.7" fill="#fff"/></g><g id="p24__special1" opacity=".3"><rect id="bounds-24" x="6458.9" y="899.8" width="629.3" height="297.7" fill="#fff"/><polyline id="scrollpath-10" points="6921 901.1 6884.1 938 6847.2 974.9 6810.4 1011.8 6773.5 1048.7 6736.6 1085.6 6699.7 1122.5 6662.8 1159.3 6625.9 1196.2" fill="none" stroke="#000" stroke-miterlimit="10" stroke-width=".5"/></g><g id="p25__basic" opacity=".3"><rect id="bounds-25" x="6372" y="1196.4" width="209.7" height="297.7" fill="#fff"/></g><g id="p26__basic" opacity=".3"><rect id="bounds-26" x="6372" y="1196.4" width="209.7" height="297.7" fill="#fff"/></g><g id="p27__basic" opacity=".3"><rect id="bounds-27" x="6223.7" y="1344.7" width="209.7" height="297.7" fill="#fff"/></g><g id="p28__basic" opacity=".3"><rect id="bounds-28" x="6075.4" y="1493" width="209.7" height="297.7" fill="#fff"/></g><g id="p29__basic" opacity=".3"><rect id="bounds-29" x="5927.1" y="1641.3" width="209.7" height="297.7" fill="#fff"/></g><g id="p30__basic" opacity=".3"><rect id="bounds-30" x="5778.8" y="1789.6" width="209.7" height="297.7" fill="#fff"/></g><g id="p31__basic" opacity=".3"><rect id="bounds-31" x="5630.5" y="1937.9" width="209.7" height="297.7" fill="#fff"/></g><g id="p32__special1" opacity=".3"><rect id="bounds-32" x="4766" y="2382.9" width="1048.8" height="297.7" fill="#fff"/><polyline id="scrollpath-12" points="5585.5 2236.6 5548.6 2273.5 5511.8 2310.4 5474.9 2347.3 5438 2384.2 5401.1 2421.1 5364.2 2458 5327.3 2494.8 5290.4 2531.7 5253.5 2568.6 5216.6 2605.5 5179.8 2642.4 5142.9 2679.3 5106 2716.2 5069.1 2753.1 5032.2 2789.9 4995.3 2826.8" fill="none" stroke="#000" stroke-miterlimit="10" stroke-width=".5"/></g><g id="p33__basic" opacity=".3"><rect id="bounds-33" x="4740.6" y="2827.9" width="209.7" height="297.7" fill="#fff"/></g><g id="p34__basic" opacity=".3"><rect id="bounds-34" x="4592.3" y="2976.2" width="209.7" height="297.7" fill="#fff"/></g><g id="p35__special1" opacity=".3"><rect id="bounds-35" x="3504" y="3160.9" width="1060.1" height="398" fill="#fff"/><path id="scrollpath-5" d="M4468,3043.8l-227.5,227.5c-55.7,55.7-130.4,88.4-209.2,91.5h0c-78.7,3.1-153.4,35.7-209.2,91.5l-221.7,221.7" fill="none" stroke="#000" stroke-miterlimit="10"/></g><g id="p36__basic" opacity=".3"><rect id="bounds-36" x="4265.4" y="2945.9" width="209.7" height="297.7" fill="#fff"/></g><g id="p37__basic" opacity=".3"><rect id="bounds-37" x="4117.1" y="3094.2" width="209.7" height="297.7" fill="#fff"/></g><g id="p38__special1" opacity=".3"><rect id="bounds-38" x="3933.5" y="3157.2" width="209.7" height="397.5" fill="#fff"/></g><g id="p39__basic" opacity=".3"><rect id="bounds-39" x="3749.9" y="3320.1" width="209.7" height="297.7" fill="#fff"/></g><g id="p40__basic" opacity=".3"><rect id="bounds-40" x="3601.6" y="3468.4" width="209.7" height="297.7" fill="#fff"/></g><g id="p41__special1" opacity=".3"><rect id="bounds-41" x="3028.3" y="3666" width="602.3" height="297.7" fill="#fff"/><line id="scrollpath-6" x1="3468.3" y1="3676.1" x2="3190.7" y2="3953.7" fill="none" stroke="#000" stroke-miterlimit="10"/></g><g id="p42__special1" opacity=".3"><rect id="bounds-42" x="3028.3" y="3666" width="602.3" height="297.7" fill="#fff"/><line id="scrollpath-8" x1="3468.3" y1="3676.1" x2="3190.7" y2="3953.7" fill="none" stroke="#000" stroke-miterlimit="10"/></g><g id="p43__special1" opacity=".3"><rect id="bounds-43" x="3041.2" y="3914.8" width="77.7" height="297.7" fill="#fff"/></g><g id="p44__basic" opacity=".3"><rect id="bounds-44" x="2873.6" y="4016.4" width="209.7" height="297.7" fill="#fff"/></g><g id="p45__special1" opacity=".3"><rect id="bounds-45" x="2364" y="4314.3" width="633" height="297.7" fill="#fff"/><polyline id="scrollpath-15" points="2829.5 4314.2 2792.3 4351.4 2755.1 4388.6 2717.8 4425.9 2680.6 4463.1 2643.4 4500.3 2606.1 4537.6 2568.9 4574.8 2531.7 4612.1" fill="none" stroke="#000" stroke-miterlimit="10" stroke-width=".5"/></g><g id="p46__basic" opacity=".3"><rect id="bounds-46" x="2266.2" y="4625.1" width="209.7" height="297.7" fill="#fff"/></g><g id="p47__basic" opacity=".3"><rect id="bounds-47" x="2122.3" y="4767.4" width="209.7" height="297.7" fill="#fff"/></g><g id="p48__basic" opacity=".3"><rect id="bounds-48" x="1951.7" y="4853.4" width="209.7" height="297.7" fill="#fff"/></g><g id="p49__basic" opacity=".3"><rect id="bounds-49" x="1802.2" y="4946.7" width="209.7" height="297.7" fill="#fff"/></g><g id="p50__basic" opacity=".3"><rect id="bounds-50" x="1645.4" y="5046.4" width="209.7" height="297.7" fill="#fff"/></g><g id="p51__basic" opacity=".3"><rect id="bounds-51" x="1445.6" y="5046.4" width="209.7" height="297.7" fill="#fff"/></g><g id="p52__basic" opacity=".3"><rect id="bounds-52" x="1236.2" y="5002.5" width="209.7" height="297.7" fill="#fff"/></g><g id="p53__basic" opacity=".3"><rect id="bounds-53" x="1056.8" y="4904.8" width="209.7" height="297.7" fill="#fff"/></g><g id="p54__basic" opacity=".3"><rect id="bounds-54" x="909.5" y="4758.3" width="209.7" height="297.7" fill="#fff"/></g><g id="p55__special2" opacity=".3"><rect id="bounds-55" x="405.1" y="4368.8" width="626.9" height="485.2" fill="#fff"/><polyline id="scrollpath-16" points="865.3 4758.2 853.5 4746.4 841.8 4734.7 830.1 4722.9 818.3 4711.2 804.8 4699.2 790.1 4688.8 774.2 4680.2 757.4 4673.4 757.1 4673.3 756.8 4673.2 756.5 4673.1 756.2 4673 723.2 4657.4 695 4635 672.7 4606.8 657.3 4573.7 657.3 4573.7 657.3 4573.7 657.3 4573.7 657.3 4573.7 650.5 4556.8 641.9 4540.7 631.5 4525.8 619.3 4512.2 607.5 4500.3 595.6 4488.5 583.7 4476.6 571.8 4464.7" fill="none" stroke="#000" stroke-miterlimit="10" stroke-width=".5"/></g><g id="p56__basic" opacity=".3"><rect id="bounds-56" x="317.9" y="4166.8" width="209.7" height="297.7" fill="#fff"/></g><g id="p57__special2" opacity=".3"><rect id="bounds-57" x="94.5" y="3689.5" width="421.1" height="595.6" fill="#fff"/><polyline id="scrollpath-17" points="274.6 4166.5 282.3 4158.8 297.6 4143.5 305.2 4135.8 328.2 4101.2 335.9 4061.8 328.2 4022.4 305.2 3987.8 305.2 3987.8 305.2 3987.8 305.2 3987.8 305.2 3987.8 282.2 3953.1 274.6 3913.7 282.2 3874.3 305.2 3839.7 312.9 3832 328.2 3816.7 335.9 3809 335.9 3809 335.9 3809 335.9 3809 335.9 3809" fill="none" stroke="#000" stroke-miterlimit="10" stroke-width=".5"/></g><g id="p58__special1" opacity=".3"><rect id="bounds-58" x="0" y="3100.1" width="525.8" height="524.8" fill="#fff"/><polyline id="scrollpath-9" points="326.2 3160.7 318.3 3170.1 313.5 3179 310.6 3188.6 309.6 3198.7 309.6 3239.8 309.6 3280.8 309.6 3321.8 309.6 3362.8 309.6 3403.9 309.6 3444.9 309.6 3485.9 309.6 3526.9 310.6 3537.1 313.5 3546.7 318.3 3555.6 324.6 3563.7" fill="none" stroke="#000" stroke-miterlimit="10"/></g><g id="p59__basic" opacity=".3"><rect id="bounds-59" x="337.1" y="2873.3" width="209.7" height="297.7" fill="#fff"/></g><g id="p60__basic" opacity=".3"><rect id="bounds-60" x="485.4" y="2725" width="209.7" height="297.7" fill="#fff"/></g><g id="p61__basic" opacity=".3"><rect id="bounds-61" x="695.7" y="2935.3" width="209.7" height="297.7" fill="#fff"/></g><g id="p62__basic" opacity=".3"><rect id="bounds-62" x="844" y="2787" width="209.7" height="297.7" fill="#fff"/></g><g id="p63__basic" opacity=".3"><rect id="bounds-63" x="992.3" y="2638.7" width="209.7" height="297.7" fill="#fff"/></g><g id="p64__special1" opacity=".3"><rect id="bounds-64" x="1347.2" y="2789.3" width="209.7" height="706" fill="#fff"/><polyline id="scrollpath-19" points="1595.6 3286 1559.7 3250.1 1523.8 3214.2 1487.9 3178.3 1452 3142.3 1416.1 3106.4 1380.2 3070.5 1344.3 3034.6 1308.4 2998.7" fill="none" stroke="#000" stroke-miterlimit="10" stroke-width=".5"/></g><g id="p65__basic" opacity=".3"><rect id="bounds-65" x="1639.8" y="2989.6" width="209.7" height="297.7" fill="#fff"/></g><g id="p66__basic" opacity=".3"><rect id="bounds-66" x="1788.1" y="2841.3" width="209.7" height="297.7" fill="#fff"/></g><g id="p67__basic" opacity=".3"><rect id="bounds-67" x="1936.4" y="2693" width="209.7" height="297.7" fill="#fff"/></g><g id="p68__special1" opacity=".3"><rect id="bounds-68" x="1938.6" y="2359.1" width="502" height="668.8" fill="#fff"/></g><g id="p69__basic" opacity=".3"><rect id="bounds-69" x="2372.1" y="2246.5" width="209.7" height="297.7" fill="#fff"/></g><g id="p70__basic" opacity=".3"><rect id="bounds-70" x="2520.4" y="2098.2" width="209.7" height="297.7" fill="#fff"/></g><g id="p71__basic" opacity=".3"><rect id="bounds-71" x="2668.7" y="1949.9" width="209.7" height="297.7" fill="#fff"/></g><g id="p72__basic" opacity=".3"><rect id="bounds-72" x="2817" y="1801.6" width="209.7" height="297.7" fill="#fff"/></g><g id="p73__special2" opacity=".3"><rect id="bounds-73" x="2967.4" y="1573.9" width="399.3" height="381.8" fill="#fff"/><polyline id="scrollpath-20" points="3072.2 1777.6 3085.4 1768.9 3099.2 1761.2 3113.4 1754.5 3128 1748.8 3143 1744.3 3158.3 1740.8 3173.9 1738.4 3189.6 1737.1" fill="none" stroke="#000" stroke-miterlimit="10" stroke-width=".5"/></g><g id="p74__special1" opacity=".3"><rect id="bounds-74" x="3254.6" y="1578.4" width="862.6" height="381.7" fill="#fff"/><line id="scrollpath-21" x1="3393.5" y1="1761.3" x2="3978.3" y2="1761.3" fill="none" stroke="#000" stroke-miterlimit="10" stroke-width=".5"/></g><g id="p75__special1" opacity=".3"><rect id="bounds-75" x="3941" y="1434.1" width="502" height="668.8" fill="#fff"/></g><g id="p76__basic" opacity=".3"><rect id="bounds-76" x="5819.2" y="1610.1" width="209.7" height="297.7" fill="#fff"/></g><g id="p77__basic" opacity=".3"><rect id="bounds-77" x="4560.8" y="1609.8" width="209.7" height="297.7" fill="#fff"/></g><g id="p78__basic" opacity=".3"><rect id="bounds-78" x="4770.6" y="1609.8" width="209.7" height="297.7" fill="#fff"/></g><g id="p79__basic" opacity=".3"><rect id="bounds-79" x="4980.3" y="1609.8" width="209.7" height="297.7" fill="#fff"/></g><g id="p80__basic" opacity=".3"><rect id="bounds-80" x="5190" y="1609.8" width="209.7" height="297.7" fill="#fff"/></g><g id="p81__special2"><rect id="bounds-81" x="6028.9" y="1547.3" width="881.5" height="423.3" fill="#fff" opacity=".3"/><polyline id="scrollpath-22-2" points="6135.6 1759.6 6158.2 1759.6 6180.8 1759.6 6204.4 1758.2 6227.5 1753.8 6249.9 1746.5 6271.3 1736.6 6289.6 1728.1 6312.3 1720.7 6339.6 1715.4 6371.6 1713.4 6398.8 1716.8 6422.5 1725.3 6442.1 1736.3 6456.9 1747.4 6465.5 1755.7 6473.2 1764.8 6483.4 1776 6501.8 1789 6529.9 1799.8 6568.9 1804.3 6597.8 1802.2 6624.1 1796.6 6647.1 1788.9 6666.5 1780.1 6687 1771.3 6708.2 1764.9 6730 1761 6752.2 1759.6 6778 1759.6 6803.9 1759.6" fill="none" stroke="#000" stroke-miterlimit="10" stroke-width=".5"/></g><g id="p82__basic" opacity=".3"><rect id="bounds-82" x="6910.4" y="1610.2" width="209.7" height="297.7" fill="#fff"/></g><g id="p83__basic" opacity=".3"><rect id="bounds-83" x="7120.1" y="1610.2" width="209.7" height="297.7" fill="#fff"/></g><g id="p84__special1" opacity=".3"><rect id="bounds-84" x="7329.9" y="1610.2" width="633" height="297.7" fill="#fff"/><polyline id="scrollpath-23" points="7434.3 1758 7469.3 1758 7504.3 1758 7539.3 1758 7574.3 1758 7609.3 1758 7644.3 1758 7679.3 1758 7714.3 1758" fill="none" stroke="#000" stroke-miterlimit="10" stroke-width=".5"/></g><g id="p85__basic" opacity=".3"><rect id="bounds-85" x="4402.9" y="1975.3" width="209.7" height="297.7" fill="#fff"/></g><g id="p86__basic" opacity=".3"><rect id="bounds-86" x="4551.2" y="2123.6" width="209.7" height="297.7" fill="#fff"/></g><g id="p87__basic" opacity=".3"><rect id="bounds-87" x="4699.5" y="2271.9" width="209.7" height="297.7" fill="#fff"/></g><g id="p88__basic" opacity=".3"><rect id="bounds-88" x="4847.8" y="2420.2" width="209.7" height="297.7" fill="#fff"/></g><g id="p89__basic" opacity=".3"><rect id="bounds-89" x="4996.3" y="2568.3" width="209.7" height="297.7" fill="#fff"/></g><g id="p90__special1" opacity=".3"><rect id="bounds-90" x="4937.6" y="2760.9" width="839" height="425.2" fill="#fff"/><polyline id="scrollpath-25" points="5255.3 2817.5 5294.4 2856.5 5333.4 2895.5 5372.4 2934.5 5411.4 2973.5 5450.4 3012.5 5489.4 3051.6 5528.4 3090.6 5567.4 3129.6" fill="none" stroke="#000" stroke-miterlimit="10" stroke-width=".5"/></g><g id="p91__special1" opacity=".3"><rect id="bounds-91" x="5443.6" y="3290.1" width="272.5" height="330.1" fill="#fff"/><line x1="5731.8" y1="3293.6" x2="5744.8" y2="3306.6" fill="none" stroke="#000" stroke-miterlimit="10"/></g><g id="p92__basic" opacity=".3"><rect id="bounds-92" x="5847.3" y="3419.7" width="209.7" height="297.7" fill="#fff"/></g><g id="p93__basic" opacity=".3"><rect id="bounds-93" x="5995.6" y="3568" width="209.7" height="297.7" fill="#fff"/></g><g id="p94__basic" opacity=".3"><rect id="bounds-94" x="6143.9" y="3716.3" width="209.7" height="297.7" fill="#fff"/></g><g id="p95__basic" opacity=".3"><rect id="bounds-95" x="6292.2" y="3864.6" width="209.7" height="297.7" fill="#fff"/></g><g id="p96__basic" opacity=".3"><rect id="bounds-96" x="6440.5" y="4012.9" width="209.7" height="297.7" fill="#fff"/></g></g></svg>