<?xml version="1.0" encoding="UTF-8"?>
<svg id="_레이어_1" xmlns="http://www.w3.org/2000/svg" version="1.1" xmlns:xlink="http://www.w3.org/1999/xlink" viewBox="0 0 7962.8 5344.1">
  <!-- Generator: Adobe Illustrator 29.7.1, SVG Export Plug-In . SVG Version: 2.1.1 Build 8)  -->
  <defs>
    <style>
      .st0 {
        stroke-width: .5px;
      }

      .st0, .st1 {
        stroke: #000;
        stroke-miterlimit: 10;
      }

      .st0, .st1, .st2 {
        fill: none;
      }

      .st3 {
        display: none;
      }

      .st3, .st4 {
        isolation: isolate;
      }

      .st5, .st4 {
        fill: #fff;
      }

      .st4, .st6 {
        opacity: .3;
      }
    </style>
  </defs>
  <g id="p1__special1" class="st6">
    <rect id="bounds" class="st5" x="3014.2" y="-5423.7" width="740.2" height="740.2"/>
  </g>
  <g id="p2__special1" class="st6">
    <rect id="bounds-2" class="st5" x="3014.2" y="-5423.7" width="740.2" height="740.2"/>
  </g>
  <g id="p3__special1" class="st6">
    <rect id="bounds-3" class="st5" x="3014.2" y="-5423.7" width="740.2" height="740.2"/>
  </g>
  <g id="p4__basic" class="st6">
    <rect id="bounds-4" class="st5" x="3723.5" y="-5202.5" width="209.7" height="297.7"/>
  </g>
  <g id="p5__basic" class="st6">
    <rect id="bounds-5" class="st5" x="3933.2" y="-5202.5" width="209.7" height="297.7"/>
  </g>
  <g id="p6__special1" class="st6">
    <rect id="bounds-6" class="st5" x="4143" y="-5337.1" width="419.6" height="432.3"/>
    <polyline id="scrollpath2" class="st0" points="4248.5 -5053.9 4274.5 -5070.6 4300.6 -5087.4 4326.7 -5104.1 4352.8 -5120.8 4378.8 -5137.6 4404.9 -5154.3 4431 -5171.1 4457.1 -5187.8"/>
  </g>
  <g id="p7__special1" class="st6">
    <rect id="bounds-7" class="st5" x="4562.5" y="-5337.1" width="219.3" height="309.8"/>
  </g>
  <g id="p8__basic" class="st6">
    <rect id="bounds-8" class="st5" x="4770.6" y="-5337.1" width="209.7" height="297.7"/>
  </g>
  <g id="p9__basic" class="st6">
    <rect id="bounds-9" class="st5" x="4980.3" y="-5337.1" width="209.7" height="297.7"/>
  </g>
  <g id="p10__basic" class="st6">
    <rect id="bounds-10" class="st5" x="5190" y="-5337.1" width="209.7" height="297.7"/>
  </g>
  <g id="p11__special1" class="st6">
    <rect id="bounds-11" class="st5" x="5399.8" y="-5337.1" width="209.7" height="453.5"/>
    <polyline id="scrollpath-3" class="st0" points="5504.6 -5187.8 5504.6 -5167.8 5504.6 -5147.8 5504.6 -5127.8 5504.6 -5107.7 5504.6 -5087.7 5504.6 -5067.7 5504.6 -5047.7 5504.6 -5027.7"/>
  </g>
  <g id="p12__special1" class="st6">
    <rect id="bounds-12" class="st5" x="5399.8" y="-4903.6" width="209.7" height="374.7"/>
    <polyline id="scrollpath-4" class="st0" points="5504.6 -4754.5 5504.6 -4744.9 5504.6 -4735.3 5504.6 -4725.8 5504.6 -4716.2 5504.6 -4706.6 5504.6 -4697 5504.6 -4687.5 5504.6 -4677.9"/>
  </g>
  <g id="p13__special1" class="st6">
    <rect id="bounds-13" class="st5" x="5399.8" y="-4548.9" width="209.7" height="755.3"/>
    <polyline id="scrollpath" class="st0" points="5504.6 -4398.8 5504.6 -4342 5504.6 -4285.1 5504.6 -4228.3 5504.6 -4171.4 5504.6 -4114.5 5504.6 -4057.7 5504.6 -4000.8 5504.6 -3944"/>
  </g>
  <g id="p14__basic" class="st6">
    <rect id="bounds-14" class="st5" x="5399.8" y="-3813.6" width="209.7" height="297.7"/>
  </g>
  <g id="p15__basic" class="st6">
    <rect id="bounds-15" class="st5" x="5609.5" y="-3813.6" width="209.7" height="297.7"/>
  </g>
  <g id="p16__basic" class="st6">
    <rect id="bounds-16" class="st5" x="5819.2" y="-3813.6" width="209.7" height="297.7"/>
  </g>
  <g id="p17__special2" class="st6">
    <rect id="bounds-17" class="st5" x="6028.9" y="-3876.4" width="881.5" height="423.3"/>
    <polyline id="scrollpath-22" class="st0" points="6135.6 -3664.1 6158.2 -3664.1 6180.8 -3664.1 6204.4 -3665.5 6227.5 -3669.9 6249.9 -3677.2 6271.3 -3687.1 6289.6 -3695.6 6312.3 -3703 6339.6 -3708.3 6371.6 -3710.3 6398.8 -3706.9 6422.5 -3698.4 6442.1 -3687.4 6456.9 -3676.3 6465.5 -3668 6473.2 -3658.9 6483.4 -3647.7 6501.8 -3634.7 6529.9 -3623.9 6568.9 -3619.4 6597.8 -3621.5 6624.1 -3627.1 6647.1 -3634.8 6666.5 -3643.6 6687 -3652.4 6708.2 -3658.8 6730 -3662.7 6752.2 -3664.1 6778 -3664.1 6803.9 -3664.1"/>
  </g>
  <g id="p18__basic" class="st6">
    <rect id="bounds-18" class="st5" x="6910.4" y="-3813.6" width="209.7" height="297.7"/>
  </g>
  <g id="p19__special2" class="st6">
    <rect id="bounds-19" class="st5" x="7120.1" y="-4024.2" width="508.2" height="508.2"/>
    <polyline id="scrollpath-7" class="st0" points="7224.5 -3666.7 7250.6 -3666.7 7276.6 -3666.7 7302.7 -3666.7 7328.8 -3666.7 7337.8 -3666.7 7392.2 -3677.7 7436.6 -3707.7 7466.6 -3752.1 7477.6 -3806.5 7477.6 -3841.7 7477.6 -3867.7 7477.6 -3893.8 7477.6 -3919.9"/>
  </g>
  <g id="p20__basic" class="st6">
    <rect id="bounds-20" class="st5" x="7374.7" y="-4278.1" width="209.7" height="297.7"/>
  </g>
  <g id="p21__special1" class="st6">
    <rect id="bounds-21" class="st5" x="7182.9" y="-4577" width="468.5" height="500.1"/>
    <line id="scrollpath1" class="st2" x1="7417.1" y1="-4264.5" x2="7429.2" y2="-4264.5"/>
  </g>
  <g id="p22__special2" class="st6">
    <rect id="bounds-22" class="st5" x="6981.6" y="-5090.6" width="701.5" height="592"/>
    <polyline id="scrollpath-2" class="st0" points="7478.8 -4548.6 7478.8 -4596.7 7478.8 -4644.8 7478.8 -4692.9 7478.8 -4741.1 7478.8 -4789.2 7478.8 -4837.3 7478.8 -4885.4 7478.8 -4933.5 7475.1 -4954.2 7465 -4972 7449.6 -4985.4 7430 -4993 7430 -4993 7430 -4993 7430 -4993 7430 -4993 7430 -4993 7430 -4993 7430 -4993 7430 -4993 7415 -4994.1 7400.5 -4991.6 7387 -4985.6 7375.2 -4976.4 7355.7 -4957 7336.3 -4937.6 7316.9 -4918.1 7297.4 -4898.7 7278 -4879.3 7258.6 -4859.8 7239.1 -4840.4 7219.7 -4821"/>
  </g>
  <g id="p23__basic" class="st6">
    <rect id="bounds-23" class="st5" x="6965.3" y="-4820.5" width="209.7" height="297.7"/>
  </g>
  <g id="p24__special1" class="st6">
    <rect id="bounds-24" class="st5" x="6458.9" y="-4523.9" width="629.3" height="297.7"/>
    <polyline id="scrollpath-10" class="st0" points="6921 -4522.6 6884.1 -4485.7 6847.2 -4448.8 6810.4 -4411.9 6773.5 -4375 6736.6 -4338.1 6699.7 -4301.2 6662.8 -4264.4 6625.9 -4227.5"/>
  </g>
  <g id="p25__basic" class="st6">
    <rect id="bounds-25" class="st5" x="6372" y="-4227.3" width="209.7" height="297.7"/>
  </g>
  <g id="p26__basic" class="st6">
    <rect id="bounds-26" class="st5" x="6372" y="-4227.3" width="209.7" height="297.7"/>
  </g>
  <g id="p27__basic" class="st6">
    <rect id="bounds-27" class="st5" x="6223.7" y="-4079" width="209.7" height="297.7"/>
  </g>
  <g id="p28__basic" class="st6">
    <rect id="bounds-28" class="st5" x="6075.4" y="-3930.7" width="209.7" height="297.7"/>
  </g>
  <g id="p29__basic" class="st6">
    <rect id="bounds-29" class="st5" x="5927.1" y="-3782.4" width="209.7" height="297.7"/>
  </g>
  <g id="p30__basic" class="st6">
    <rect id="bounds-30" class="st5" x="5778.8" y="-3634.1" width="209.7" height="297.7"/>
  </g>
  <g id="p31__basic" class="st6">
    <rect id="bounds-31" class="st5" x="5630.5" y="-3485.8" width="209.7" height="297.7"/>
  </g>
  <g id="p32__special1" class="st6">
    <rect id="bounds-32" class="st5" x="4766" y="-3040.8" width="1048.8" height="297.7"/>
    <polyline id="scrollpath-12" class="st0" points="5585.5 -3187.1 5548.6 -3150.2 5511.8 -3113.3 5474.9 -3076.4 5438 -3039.5 5401.1 -3002.6 5364.2 -2965.7 5327.3 -2928.9 5290.4 -2892 5253.5 -2855.1 5216.6 -2818.2 5179.8 -2781.3 5142.9 -2744.4 5106 -2707.5 5069.1 -2670.6 5032.2 -2633.8 4995.3 -2596.9"/>
  </g>
  <g id="p33__basic" class="st6">
    <rect id="bounds-33" class="st5" x="4740.6" y="-2595.8" width="209.7" height="297.7"/>
  </g>
  <g id="p34__basic" class="st6">
    <rect id="bounds-34" class="st5" x="4592.3" y="-2447.5" width="209.7" height="297.7"/>
  </g>
  <g id="p35__special1" class="st6">
    <rect id="bounds-35" class="st5" x="3513" y="-2267.8" width="1050.5" height="398.9"/>
    <polyline id="scrollpath3" class="st1" points="4478.1 -2384.1 4421.2 -2327.2 4364.3 -2270.3 4307.4 -2213.4 4250.5 -2156.5 4205.4 -2119.1 4154.6 -2091 4099.4 -2072.7 4040.6 -2064.8 3983.3 -2057.1 3928.2 -2038.9 3877.3 -2010.8 3832.1 -1973.4 3776.7 -1918 3721.3 -1862.6 3665.9 -1807.2 3610.5 -1751.8"/>
  </g>
  <g id="p36__basic" class="st6">
    <rect id="bounds-36" class="st5" x="4265.4" y="-2477.8" width="209.7" height="297.7"/>
  </g>
  <g id="p37__basic" class="st6">
    <rect id="bounds-37" class="st5" x="4117.1" y="-2329.5" width="209.7" height="297.7"/>
  </g>
  <g id="p38__special1" class="st6">
    <rect id="bounds-38" class="st5" x="3933.5" y="-2266.5" width="209.7" height="397.5"/>
  </g>
  <g id="p39__basic" class="st6">
    <rect id="bounds-39" class="st5" x="3749.9" y="-2103.6" width="209.7" height="297.7"/>
  </g>
  <g id="p40__basic" class="st6">
    <rect id="bounds-40" class="st5" x="3601.6" y="-1955.3" width="209.7" height="297.7"/>
  </g>
  <g id="p41__special1" class="st6">
    <rect id="bounds-41" class="st5" x="3028.3" y="-1757.7" width="602.3" height="297.7"/>
    <polyline id="scrollpath-6" class="st1" points="3468.3 -1747.6 3433.6 -1712.9 3398.9 -1678.2 3364.2 -1643.5 3329.5 -1608.8 3294.8 -1574.1 3260.1 -1539.4 3225.4 -1504.7 3190.7 -1470"/>
  </g>
  <g id="p42__basic" class="st6">
    <rect id="bounds-42" class="st5" x="3028.3" y="-1757.7" width="602.3" height="297.7"/>
  </g>
  <g id="p43__special1" class="st6">
    <rect id="bounds-43" class="st5" x="3041.2" y="-1508.9" width="77.7" height="297.7"/>
  </g>
  <g id="p44__basic" class="st6">
    <rect id="bounds-44" class="st5" x="2873.6" y="-1407.3" width="209.7" height="297.7"/>
  </g>
  <g id="p45__special1" class="st6">
    <rect id="bounds-45" class="st5" x="2364" y="-1109.4" width="633" height="297.7"/>
    <polyline id="scrollpath-15" class="st0" points="2829.5 -1109.5 2792.3 -1072.3 2755.1 -1035.1 2717.8 -997.8 2680.6 -960.6 2643.4 -923.4 2606.1 -886.1 2568.9 -848.9 2531.7 -811.6"/>
  </g>
  <g id="p46__basic" class="st6">
    <rect id="bounds-46" class="st5" x="2266.2" y="-798.6" width="209.7" height="297.7"/>
  </g>
  <g id="p47__basic" class="st6">
    <rect id="bounds-47" class="st5" x="2122.3" y="-656.3" width="209.7" height="297.7"/>
  </g>
  <g id="p48__basic" class="st6">
    <rect id="bounds-48" class="st5" x="1951.7" y="-570.3" width="209.7" height="297.7"/>
  </g>
  <g id="p49__basic" class="st6">
    <rect id="bounds-49" class="st5" x="1802.2" y="-477" width="209.7" height="297.7"/>
  </g>
  <g id="p50__basic" class="st6">
    <rect id="bounds-50" class="st5" x="1645.4" y="-377.3" width="209.7" height="297.7"/>
  </g>
  <g id="p51__basic" class="st6">
    <rect id="bounds-51" class="st5" x="1445.6" y="-377.3" width="209.7" height="297.7"/>
  </g>
  <g id="p52__basic" class="st6">
    <rect id="bounds-52" class="st5" x="1236.2" y="-421.2" width="209.7" height="297.7"/>
  </g>
  <g id="p53__basic" class="st6">
    <rect id="bounds-53" class="st5" x="1056.8" y="-518.9" width="209.7" height="297.7"/>
  </g>
  <g id="p54__basic" class="st6">
    <rect id="bounds-54" class="st5" x="909.5" y="-665.4" width="209.7" height="297.7"/>
  </g>
  <g id="p55__special1" class="st6">
    <rect id="bounds-55" class="st5" x="405.1" y="-1054.9" width="626.9" height="485.2"/>
    <polyline id="scrollpath-16" class="st0" points="865.3 -665.5 853.5 -677.3 841.8 -689 830.1 -700.8 818.3 -712.5 804.8 -724.5 790.1 -734.9 774.2 -743.5 757.4 -750.3 757.1 -750.4 756.8 -750.5 756.5 -750.6 756.2 -750.7 723.2 -766.3 695 -788.7 672.7 -816.9 657.3 -850 657.3 -850 657.3 -850 657.3 -850 657.3 -850 650.5 -866.9 641.9 -883 631.5 -897.9 619.3 -911.5 607.5 -923.4 595.6 -935.2 583.7 -947.1 571.8 -959"/>
  </g>
  <g id="p56__basic" class="st6">
    <rect id="bounds-56" class="st5" x="317.9" y="-1256.9" width="209.7" height="297.7"/>
  </g>
  <g id="p57__special1" class="st6">
    <rect id="bounds-57" class="st5" x="94.5" y="-1734.2" width="421.1" height="595.6"/>
    <polyline id="scrollpath-17" class="st0" points="274.6 -1257.2 282.3 -1264.9 297.6 -1280.2 305.2 -1287.9 328.2 -1322.5 335.9 -1361.9 328.2 -1401.3 305.2 -1435.9 305.2 -1435.9 305.2 -1435.9 305.2 -1435.9 305.2 -1435.9 282.2 -1470.6 274.6 -1510 282.2 -1549.4 305.2 -1584 312.9 -1591.7 328.2 -1607 335.9 -1614.7 335.9 -1614.7 335.9 -1614.7 335.9 -1614.7 335.9 -1614.7"/>
  </g>
  <g id="p58__special2" class="st6">
    <rect id="bounds-58" class="st5" y="-2323.6" width="525.8" height="524.8"/>
    <polyline id="scrollpath-9" class="st1" points="324.6 -1860 318.3 -1868.1 313.5 -1877 310.6 -1886.6 309.6 -1896.8 309.6 -1937.8 309.6 -1978.8 309.6 -2019.8 309.6 -2060.9 309.6 -2101.9 309.6 -2142.9 309.6 -2183.9 309.6 -2225 310.6 -2235.1 313.5 -2244.7 318.3 -2253.6 326.2 -2263"/>
  </g>
  <g id="p59__basic" class="st6">
    <rect id="bounds-59" class="st5" x="337.1" y="-2550.4" width="209.7" height="297.7"/>
  </g>
  <g id="p60__basic" class="st6">
    <rect id="bounds-60" class="st5" x="484.8" y="-2698.1" width="209.7" height="297.7"/>
  </g>
  <g id="p61__basic" class="st6">
    <rect id="bounds-61" class="st5" x="633.4" y="-2846.9" width="209.7" height="297.7"/>
  </g>
  <g id="p62__basic" class="st6">
    <rect id="bounds-62" class="st5" x="781.7" y="-2995.2" width="209.7" height="297.7"/>
  </g>
  <g id="p63__special1" class="st6">
    <rect id="bounds-64" class="st5" x="1138.3" y="-2844.6" width="209.7" height="706"/>
    <polyline id="scrollpath-19" class="st0" points="1099.5 -2635.2 1135.4 -2599.3 1171.3 -2563.4 1207.2 -2527.5 1243.1 -2491.6 1279 -2455.6 1314.9 -2419.7 1350.8 -2383.8 1386.7 -2347.9"/>
  </g>
  <g id="p64__basic" class="st6">
    <rect id="bounds-65" class="st5" x="1493.2" y="-2285.8" width="209.7" height="297.7"/>
  </g>
  <g id="p65__basic" class="st6">
    <rect id="bounds-66" class="st5" x="1641.5" y="-2434.1" width="209.7" height="297.7"/>
  </g>
  <g id="p66__basic" class="st6">
    <rect id="bounds-67" class="st5" x="1789.8" y="-2582.4" width="209.7" height="297.7"/>
  </g>
  <g id="p67__special1" class="st6">
    <rect id="bounds-68" class="st5" x="1792" y="-2916.3" width="502" height="668.8"/>
  </g>
  <g id="p68__basic" class="st6">
    <rect id="bounds-69" class="st5" x="2372.1" y="-3177.2" width="209.7" height="297.7"/>
  </g>
  <g id="p69__basic" class="st6">
    <rect id="bounds-70" class="st5" x="2520.4" y="-3325.5" width="209.7" height="297.7"/>
  </g>
  <g id="p70__basic" class="st6">
    <rect id="bounds-71" class="st5" x="2668.7" y="-3473.8" width="209.7" height="297.7"/>
  </g>
  <g id="p71__basic" class="st6">
    <rect id="bounds-72" class="st5" x="2817" y="-3622.1" width="209.7" height="297.7"/>
  </g>
  <g id="p72__special2" class="st6">
    <rect id="bounds-73" class="st5" x="2967.4" y="-3849.8" width="399.3" height="381.8"/>
    <polyline id="scrollpath-20" class="st0" points="3072.2 -3646.1 3085.4 -3654.8 3099.2 -3662.5 3113.4 -3669.2 3128 -3674.9 3143 -3679.4 3158.3 -3682.9 3173.9 -3685.3 3189.6 -3686.6"/>
  </g>
  <g id="p73__special1" class="st6">
    <rect id="bounds-74" class="st5" x="3254.6" y="-3845.3" width="862.6" height="381.7"/>
    <polyline id="scrollpath-21" class="st0" points="3393.5 -3662.4 3466.6 -3662.4 3539.7 -3662.4 3612.8 -3662.4 3685.9 -3662.4 3759 -3662.4 3832.1 -3662.4 3905.2 -3662.4 3978.3 -3662.4"/>
  </g>
  <g id="p74__basic" class="st6">
    <rect id="bounds-77" class="st5" x="4560.8" y="-3813.9" width="209.7" height="297.7"/>
  </g>
  <g id="p75__basic" class="st6">
    <rect id="bounds-78" class="st5" x="4770.6" y="-3813.9" width="209.7" height="297.7"/>
  </g>
  <g id="p76__basic" class="st6">
    <rect id="bounds-79" class="st5" x="4980.3" y="-3813.9" width="209.7" height="297.7"/>
  </g>
  <g id="p77__basic" class="st6">
    <rect id="bounds-80" class="st5" x="5190" y="-3813.9" width="209.7" height="297.7"/>
  </g>
  <g id="p78__basic" class="st6">
    <rect id="bounds-141" class="st5" x="5399.8" y="-3813.6" width="209.7" height="297.7"/>
  </g>
  <g id="p79__basic" class="st6">
    <rect id="bounds-151" class="st5" x="5609.5" y="-3813.6" width="209.7" height="297.7"/>
  </g>
  <g id="p80__basic" class="st6">
    <rect id="bounds-76" class="st5" x="5819.2" y="-3813.6" width="209.7" height="297.7"/>
  </g>
  <g id="p81__special2">
    <rect id="bounds-81" class="st4" x="6028.9" y="-3876.4" width="881.5" height="423.3"/>
    <polyline id="scrollpath-22-2" class="st0" points="6135.6 -3664.1 6158.2 -3664.1 6180.8 -3664.1 6204.4 -3665.5 6227.5 -3669.9 6249.9 -3677.2 6271.3 -3687.1 6289.6 -3695.6 6312.3 -3703 6339.6 -3708.3 6371.6 -3710.3 6398.8 -3706.9 6422.5 -3698.4 6442.1 -3687.4 6456.9 -3676.3 6465.5 -3668 6473.2 -3658.9 6483.4 -3647.7 6501.8 -3634.7 6529.9 -3623.9 6568.9 -3619.4 6597.8 -3621.5 6624.1 -3627.1 6647.1 -3634.8 6666.5 -3643.6 6687 -3652.4 6708.2 -3658.8 6730 -3662.7 6752.2 -3664.1 6778 -3664.1 6803.9 -3664.1"/>
  </g>
  <g id="p82__basic" class="st6">
    <rect id="bounds-82" class="st5" x="6910.4" y="-3813.5" width="209.7" height="297.7"/>
  </g>
  <g id="p83__basic" class="st6">
    <rect id="bounds-83" class="st5" x="7120.1" y="-3813.5" width="209.7" height="297.7"/>
  </g>
  <g id="p84__special1" class="st6">
    <rect id="bounds-84" class="st5" x="7329.9" y="-3813.5" width="633" height="297.7"/>
    <polyline id="scrollpath-23" class="st0" points="7434.3 -3665.7 7469.3 -3665.7 7504.3 -3665.7 7539.3 -3665.7 7574.3 -3665.7 7609.3 -3665.7 7644.3 -3665.7 7679.3 -3665.7 7714.3 -3665.7"/>
  </g>
  <g id="p85__special1" class="st6">
    <rect id="bounds1" class="st5" x="3941" y="-3989.6" width="502" height="668.8"/>
  </g>
  <g id="p86__basic" class="st6">
    <rect id="bounds-85" class="st5" x="4402.9" y="-3448.4" width="209.7" height="297.7"/>
  </g>
  <g id="p87__basic" class="st6">
    <rect id="bounds-86" class="st5" x="4551.2" y="-3300.1" width="209.7" height="297.7"/>
  </g>
  <g id="p88__basic" class="st6">
    <rect id="bounds-87" class="st5" x="4699.5" y="-3151.8" width="209.7" height="297.7"/>
  </g>
  <g id="p89__basic" class="st6">
    <rect id="bounds-88" class="st5" x="4847.8" y="-3003.5" width="209.7" height="297.7"/>
  </g>
  <g id="p90__basic" class="st6">
    <rect id="bounds-89" class="st5" x="4996.3" y="-2855.4" width="209.7" height="297.7"/>
  </g>
  <g id="p91__special1" class="st6">
    <rect id="bounds-90" class="st5" x="4937.6" y="-2662.8" width="839" height="425.2"/>
    <polyline id="uuid-290d67d3-cd25-4936-868f-1fd895bdfcc7" class="st0" points="5255.3 -2606.2 5294.4 -2567.2 5333.4 -2528.2 5372.4 -2489.2 5411.4 -2450.2 5450.4 -2411.2 5489.4 -2372.1 5528.4 -2333.1 5567.4 -2294.1"/>
  </g>
  <g id="p92__special1" class="st6">
    <rect id="bounds-91" class="st5" x="5443.6" y="-2133.6" width="272.5" height="330.1"/>
    <line id="scrollpath4" class="st1" x1="5731.8" y1="-2130.1" x2="5744.8" y2="-2117.1"/>
  </g>
  <g id="p93__basic" class="st6">
    <rect id="bounds-92" class="st5" x="5847.3" y="-2004" width="209.7" height="297.7"/>
  </g>
  <g id="p94__basic" class="st6">
    <rect id="bounds-93" class="st5" x="5995.6" y="-1855.7" width="209.7" height="297.7"/>
  </g>
  <g id="p95__basic" class="st6">
    <rect id="bounds-94" class="st5" x="6143.9" y="-1707.4" width="209.7" height="297.7"/>
  </g>
  <g id="p96__basic" class="st6">
    <rect id="bounds-95" class="st5" x="6292.2" y="-1559.1" width="209.7" height="297.7"/>
  </g>
  <g id="p97__basic" class="st6">
    <rect id="bounds-96" class="st5" x="6440.5" y="-1410.8" width="209.7" height="297.7"/>
  </g>
  <image class="st3" width="2000" height="751" transform="translate(4549.5 -2297.9) rotate(135) scale(.5)" xlink:href="images/p35.png"/>
</svg>