<?xml version="1.0" encoding="UTF-8"?>
<svg id="_레이어_2" xmlns="http://www.w3.org/2000/svg" version="1.1" viewBox="0 0 199.6 199.6">
  <!-- Generator: Adobe Illustrator 29.7.1, SVG Export Plug-In . SVG Version: 2.1.1 Build 8)  -->
  <defs>
    <style>
      .st0 {
        fill: #222574;
      }

      .st1 {
        fill: none;
      }

      .st2 {
        fill: #f5f5f0;
      }
    </style>
  </defs>
  <g id="_레이어_1-2">
    <rect class="st1" x="35.8" y="35.8" width="128" height="128"/>
    <g>
      <path class="st2" d="M99.8,136.6c-20.3,0-36.8-16.5-36.8-36.8s16.5-36.8,36.8-36.8,36.8,16.5,36.8,36.8-16.5,36.8-36.8,36.8ZM99.8,82.7c-9.5,0-17.2,7.7-17.2,17.2s7.7,17.2,17.2,17.2,17.2-7.7,17.2-17.2-7.7-17.2-17.2-17.2Z"/>
      <path class="st0" d="M99.8,68c17.6,0,31.8,14.2,31.8,31.8s-14.2,31.8-31.8,31.8-31.8-14.2-31.8-31.8,14.2-31.8,31.8-31.8M99.8,122.1c12.2,0,22.2-9.9,22.2-22.2s-9.9-22.2-22.2-22.2-22.2,9.9-22.2,22.2,9.9,22.2,22.2,22.2M99.8,58c-23.1,0-41.8,18.8-41.8,41.8s18.8,41.8,41.8,41.8,41.8-18.8,41.8-41.8-18.8-41.8-41.8-41.8h0ZM99.8,112.1c-6.7,0-12.2-5.5-12.2-12.2s5.5-12.2,12.2-12.2,12.2,5.5,12.2,12.2-5.5,12.2-12.2,12.2h0Z"/>
    </g>
  </g>
</svg>