<?xml version="1.0" encoding="UTF-8"?>
<svg id="_레이어_2" xmlns="http://www.w3.org/2000/svg" version="1.1" viewBox="0 0 199.6 199.6">
  <!-- Generator: Adobe Illustrator 29.7.1, SVG Export Plug-In . SVG Version: 2.1.1 Build 8)  -->
  <defs>
    <style>
      .st0 {
        fill: #222574;
      }

      .st1 {
        fill: none;
      }

      .st2 {
        fill: #f5f5f0;
      }
    </style>
  </defs>
  <g id="_레이어_1-2">
    <g>
      <path class="st2" d="M100.6,143.7c-2.6,0-5.1-1-6.9-2.9l-34.1-34.1c-1.9-1.9-2.9-4.3-2.9-6.9s1-5.1,2.9-6.9l34.1-34.1c1.8-1.8,4.3-2.9,6.9-2.9s5.1,1,6.9,2.9c3.8,3.8,3.8,10,0,13.9l-27.1,27.1,27.1,27.1c3.8,3.8,3.8,10,0,13.9-1.9,1.9-4.3,2.9-6.9,2.9Z"/>
      <path class="st0" d="M100.6,61c1.2,0,2.5.5,3.4,1.4,1.9,1.9,1.9,4.9,0,6.8l-30.7,30.7,30.7,30.7c1.9,1.9,1.9,4.9,0,6.8-1,1-2.2,1.4-3.4,1.4s-2.4-.4-3.4-1.4l-34.1-34.1c-.9-.9-1.4-2.1-1.4-3.4s.5-2.5,1.4-3.4l34.1-34.1c.9-.9,2.2-1.4,3.4-1.4M100.6,51c-4,0-7.7,1.5-10.5,4.3l-34.1,34.1c-2.8,2.8-4.3,6.5-4.3,10.5s1.5,7.7,4.3,10.5l34.1,34.1c2.8,2.8,6.5,4.3,10.5,4.3s7.7-1.5,10.5-4.3c5.8-5.8,5.8-15.2,0-20.9l-23.6-23.6,23.6-23.6c5.8-5.8,5.8-15.2,0-20.9-2.8-2.8-6.5-4.3-10.5-4.3h0Z"/>
    </g>
    <g>
      <path class="st2" d="M102.3,109.6c-5.4,0-9.8-4.4-9.8-9.8s4.4-9.8,9.8-9.8h30.8c5.4,0,9.8,4.4,9.8,9.8s-4.4,9.8-9.8,9.8h-30.8Z"/>
      <path class="st0" d="M133.1,95c2.6,0,4.8,2.2,4.8,4.8s-2.2,4.8-4.8,4.8h-30.8c-2.6,0-4.8-2.2-4.8-4.8s2.2-4.8,4.8-4.8h30.8M133.1,85h-30.8c-8.2,0-14.8,6.6-14.8,14.8s6.6,14.8,14.8,14.8h30.8c8.2,0,14.8-6.6,14.8-14.8s-6.6-14.8-14.8-14.8h0Z"/>
    </g>
    <rect class="st1" x="35.8" y="35.8" width="128" height="128"/>
  </g>
</svg>