<?xml version="1.0" encoding="UTF-8"?>
<svg id="_레이어_2" xmlns="http://www.w3.org/2000/svg" version="1.1" viewBox="0 0 199.6 199.6">
  <!-- Generator: Adobe Illustrator 29.7.1, SVG Export Plug-In . SVG Version: 2.1.1 Build 8)  -->
  <defs>
    <style>
      .st0 {
        fill: #222574;
      }

      .st1 {
        fill: none;
      }

      .st2 {
        fill: #f5f5f0;
      }
    </style>
  </defs>
  <g id="_레이어_1-2">
    <g>
      <path class="st2" d="M123.4,76.4c-2.6,0-5.1-1-6.9-2.9l-16.7-16.7-16.7,16.7c-1.8,1.8-4.3,2.9-6.9,2.9s-5.1-1-6.9-2.9c-1.8-1.8-2.9-4.3-2.9-6.9s1-5.1,2.9-6.9l23.6-23.6c1.9-1.9,4.3-2.9,6.9-2.9s5.1,1,6.9,2.9l23.6,23.6c1.8,1.8,2.9,4.3,2.9,6.9s-1,5.1-2.9,6.9c-1.9,1.9-4.3,2.9-6.9,2.9Z"/>
      <path class="st0" d="M99.8,38.2c1.3,0,2.5.5,3.4,1.4l23.6,23.6c1.9,1.9,1.9,4.9,0,6.8-1,1-2.2,1.4-3.4,1.4s-2.4-.4-3.4-1.4l-20.2-20.2-20.2,20.2c-.9.9-2.2,1.4-3.4,1.4s-2.5-.5-3.4-1.4c-1.9-1.9-1.9-4.9,0-6.8l23.6-23.6c.9-.9,2.1-1.4,3.4-1.4M99.8,28.2c-4,0-7.7,1.5-10.5,4.3l-23.6,23.6c-2.8,2.8-4.3,6.5-4.3,10.5s1.5,7.7,4.3,10.5c2.8,2.8,6.5,4.3,10.5,4.3s7.7-1.5,10.5-4.3l13.1-13.1,13.1,13.1c2.8,2.8,6.5,4.3,10.5,4.3s7.7-1.5,10.5-4.3c5.8-5.8,5.8-15.2,0-20.9l-23.6-23.6c-2.8-2.8-6.5-4.3-10.5-4.3h0Z"/>
    </g>
    <g>
      <path class="st2" d="M99.8,166.4c-2.6,0-5.1-1-6.9-2.9l-23.6-23.6c-1.8-1.8-2.9-4.3-2.9-6.9s1-5.1,2.9-6.9c1.8-1.8,4.3-2.9,6.9-2.9s5.1,1,6.9,2.9l16.7,16.7,16.7-16.7c1.8-1.8,4.3-2.9,6.9-2.9s5.1,1,6.9,2.9c1.8,1.8,2.9,4.3,2.9,6.9s-1,5.1-2.9,6.9l-23.6,23.6c-1.9,1.9-4.3,2.9-6.9,2.9Z"/>
      <path class="st0" d="M123.4,128.2c1.2,0,2.5.5,3.4,1.4,1.9,1.9,1.9,4.9,0,6.8l-23.6,23.6c-.9.9-2.1,1.4-3.4,1.4s-2.5-.5-3.4-1.4l-23.6-23.6c-1.9-1.9-1.9-4.9,0-6.8.9-.9,2.2-1.4,3.4-1.4s2.5.5,3.4,1.4l20.2,20.2,20.2-20.2c.9-.9,2.2-1.4,3.4-1.4M123.4,118.2c-4,0-7.7,1.5-10.5,4.3l-13.1,13.1-13.1-13.1c-2.8-2.8-6.5-4.3-10.5-4.3s-7.7,1.5-10.5,4.3c-5.8,5.8-5.8,15.2,0,20.9l23.6,23.6c2.8,2.8,6.5,4.3,10.5,4.3s7.7-1.5,10.5-4.3l23.6-23.6c5.8-5.8,5.8-15.2,0-20.9-2.8-2.8-6.5-4.3-10.5-4.3h0Z"/>
    </g>
    <g>
      <path class="st2" d="M84.4,98.5c-5.4,0-9.8-4.4-9.8-9.8s4.4-9.8,9.8-9.8h30.8c5.4,0,9.8,4.4,9.8,9.8s-4.4,9.8-9.8,9.8h-30.8Z"/>
      <path class="st0" d="M115.2,83.9c2.6,0,4.8,2.2,4.8,4.8s-2.2,4.8-4.8,4.8h-30.8c-2.6,0-4.8-2.2-4.8-4.8s2.2-4.8,4.8-4.8h30.8M115.2,73.9h-30.8c-8.2,0-14.8,6.6-14.8,14.8s6.6,14.8,14.8,14.8h30.8c8.2,0,14.8-6.6,14.8-14.8s-6.6-14.8-14.8-14.8h0Z"/>
    </g>
    <g>
      <path class="st2" d="M84.4,120.7c-5.4,0-9.8-4.4-9.8-9.8s4.4-9.8,9.8-9.8h30.8c5.4,0,9.8,4.4,9.8,9.8s-4.4,9.8-9.8,9.8h-30.8Z"/>
      <path class="st0" d="M115.2,106.1c2.6,0,4.8,2.2,4.8,4.8s-2.2,4.8-4.8,4.8h-30.8c-2.6,0-4.8-2.2-4.8-4.8s2.2-4.8,4.8-4.8h30.8M115.2,96.1h-30.8c-8.2,0-14.8,6.6-14.8,14.8s6.6,14.8,14.8,14.8h30.8c8.2,0,14.8-6.6,14.8-14.8s-6.6-14.8-14.8-14.8h0Z"/>
    </g>
    <rect class="st1" x="35.8" y="35.8" width="128" height="128"/>
  </g>
</svg>