<?xml version="1.0" encoding="UTF-8"?><svg id="_레이어_2" xmlns="http://www.w3.org/2000/svg" viewBox="0 0 824.9 1098.5"><g id="dummy"><polygon points="412.5 877.2 330.4 1098.5 318.2 852.2 178.8 1014.9 238.3 781.1 62.8 860.4 184.9 674.8 0 658.5 166.2 549.3 0 440 184.9 423.8 62.8 238.1 238.3 317.4 178.8 83.6 318.2 246.3 330.4 0 412.5 221.3 494.5 0 506.7 246.3 646.1 83.6 586.6 317.4 762.1 238.1 640 423.8 824.9 440 658.7 549.3 824.9 658.5 640 674.8 762.1 860.4 586.6 781.1 646.1 1014.9 506.7 852.2 494.5 1098.5 412.5 877.2" fill="#fff"/></g></svg>